<?xml version="1.0" encoding="UTF-8" standalone="yes"?><svg xmlns:rdf="http://www.w3.org/1999/02/22-rdf-syntax-ns#" xmlns="http://www.w3.org/2000/svg" xmlns:cc="http://creativecommons.org/ns#" xmlns:dc="http://purl.org/dc/elements/1.1/" height="16" width="16" version="1.0" style="zoom: 32;"><path d="M1.4609,2.03125 c-0.2505,0 -0.4609,0.2104 -0.4609,0.4609 v11.078 c0,0.259 0.2021,0.461 0.4609,0.461 h13.078 c0.259,0 0.461,-0.202 0.461,-0.461 v-9.0761 c0,-0.2504 -0.21,-0.4629 -0.461,-0.4629 h-6.539 l-2,-2 h-4.5391 m8.3829,3.5 c0.4252,0 0.8512,0.1603 1.1742,0.4824 c0.644,0.6442 0.644,1.7035 0,2.3477 l-1.0492,1.0469 c0.0442,-0.3929 -0.0174,-0.7896 -0.1876,-1.1524 l0.5648,-0.5644 c0.284,-0.2844 0.284,-0.7215 0,-1.0059 c-0.285,-0.2844 -0.7218,-0.2844 -1.0062,0 l-1.6757,1.6758 c-0.2844,0.2843 -0.2844,0.7215 0,1.0058 c0.0593,0.0594 0.1291,0.1003 0.1992,0.1348 l-0.6914,0.6913 c-0.0646,-0.048 -0.1193,-0.098 -0.1778,-0.156 c-0.6441,-0.6443 -0.6441,-1.7017 0,-2.3458 l1.6758,-1.6778 c0.3221,-0.3221 0.7483,-0.4824 1.1739,-0.4824 m-1.0157,2.3379 c0.0646,0.0478 0.1193,0.0978 0.1778,0.1562 c0.6438,0.6438 0.6431,1.7015 0,2.3459 v0.002 l-1.6758,1.676 c-0.6442,0.644 -1.7035,0.644 -2.3477,0 c-0.6442,-0.645 -0.6442,-1.704 0,-2.3481 l1.0488,-1.0469 c-0.0438,0.3929 0.0174,0.7896 0.1876,1.1524 l-0.5645,0.5646 c-0.2844,0.284 -0.2844,0.721 0,1.006 c0.2844,0.284 0.7215,0.284 1.0059,0 l1.6757,-1.6761 c0.2844,-0.2843 0.2844,-0.7215 0,-1.0058 c-0.0593,-0.0594 -0.1291,-0.1003 -0.1992,-0.1348 l0.6914,-0.6914  z " fill-rule="evenodd" fill="#25aae1"></path></svg>