<?xml version="1.0" encoding="UTF-8" standalone="yes"?><svg xmlns:rdf="http://www.w3.org/1999/02/22-rdf-syntax-ns#" xmlns="http://www.w3.org/2000/svg" xmlns:cc="http://creativecommons.org/ns#" xmlns:dc="http://purl.org/dc/elements/1.1/" height="16" width="16" version="1.0" style="zoom: 32;"><path d="M1.4609,2 c-0.2505,0 -0.4609,0.2104 -0.4609,0.4609 v11.078 c0,0.259 0.2021,0.461 0.4609,0.461 h13.078 c0.259,0 0.461,-0.202 0.461,-0.461 v-9.0761 c0,-0.2504 -0.21,-0.4629 -0.461,-0.4629 h-6.539 l-2,-2 h-4.5391 m8.6521,3.4941 c0.679,0 1.227,0.5503 1.227,1.2286 c0,0.6782 -0.548,1.2285 -1.227,1.2285 c-0.3022,0 -0.5806,-0.1097 -0.7946,-0.291 l-2.3692,1.207 c0.003,0.035 0.0078,0.0714 0.0078,0.1074 c0,0.0641 -0.0081,0.1281 -0.0175,0.1895 l2.3476,1.1989 c0.2182,-0.198 0.5079,-0.32 0.8259,-0.32 c0.679,0 1.229,0.552 1.229,1.23 c0,0.679 -0.55,1.227 -1.229,1.227 c-0.678,0 -1.2282,-0.548 -1.2282,-1.227 c0,-0.022 0.0027,-0.046 0.0039,-0.068 l-2.4317,-1.2362 c-0.2039,0.1512 -0.4574,0.2382 -0.7304,0.2382 c-0.6783,0 -1.2266,-0.5483 -1.2266,-1.2265 c0,-0.6783 0.5483,-1.2266 1.2266,-1.2266 c0.3043,0 0.5842,0.1096 0.7988,0.293 l2.3672,-1.2071 c-0.0033,-0.0366 -0.0078,-0.0757 -0.0078,-0.1132 c0,-0.6783 0.5502,-1.2266 1.2282,-1.2266 v-0.0059  z " fill-rule="evenodd" fill="#25aae1"></path></svg>