<?xml version="1.0" encoding="UTF-8" standalone="no"?>
<svg
   xmlns:dc="http://purl.org/dc/elements/1.1/"
   xmlns:cc="http://creativecommons.org/ns#"
   xmlns:rdf="http://www.w3.org/1999/02/22-rdf-syntax-ns#"
   xmlns:svg="http://www.w3.org/2000/svg"
   xmlns="http://www.w3.org/2000/svg"
   xmlns:sodipodi="http://sodipodi.sourceforge.net/DTD/sodipodi-0.dtd"
   xmlns:inkscape="http://www.inkscape.org/namespaces/inkscape"
   height="16"
   width="16"
   version="1.0"
   id="svg6"
   sodipodi:docname="group-white.svg"
   inkscape:version="0.92.2 5c3e80d, 2017-08-06">
  <metadata
     id="metadata12">
    <rdf:RDF>
      <cc:Work
         rdf:about="">
        <dc:format>image/svg+xml</dc:format>
        <dc:type
           rdf:resource="http://purl.org/dc/dcmitype/StillImage" />
        <dc:title></dc:title>
      </cc:Work>
    </rdf:RDF>
  </metadata>
  <defs
     id="defs10" />
  <sodipodi:namedview
     pagecolor="#ffffff"
     bordercolor="#666666"
     borderopacity="1"
     objecttolerance="10"
     gridtolerance="10"
     guidetolerance="10"
     inkscape:pageopacity="0"
     inkscape:pageshadow="2"
     inkscape:window-width="1188"
     inkscape:window-height="704"
     id="namedview8"
     showgrid="false"
     inkscape:zoom="23.21234"
     inkscape:cx="11.084746"
     inkscape:cy="5.9661017"
     inkscape:window-x="0"
     inkscape:window-y="0"
     inkscape:window-maximized="0"
     inkscape:current-layer="svg6" />
  <path
     style="color:#000000;text-indent:0;text-transform:none;fill:#ffffff;stroke-width:0.77856976"
     d="m 10.909709,1.9980469 c -1.3478603,0 -2.4921873,0.9857086 -2.4921873,2.2578125 0.00955,0.4020757 0.047168,0.8986899 0.2871093,1.9472656 v 0.025391 l 0.025391,0.025391 c 0.077015,0.2206303 0.1896424,0.3473349 0.3378906,0.5195313 0.1482478,0.1721965 0.3241255,0.3748052 0.4921875,0.5449219 0.019782,0.020008 0.03329,0.033238 0.052734,0.052734 0.033322,0.1450569 0.073398,0.3013785 0.1035157,0.4414062 0.08008,0.3725495 0.070765,0.6362905 0.050781,0.7265625 C 9.1879601,8.7424375 8.468344,8.9845349 7.8218185,9.265625 7.4588333,9.423437 7.1295661,9.5640269 6.860881,9.7324219 c -0.014158,0.00887 -0.01908,0.026469 -0.033203,0.035156 0.0083,0.063278 -0.012626,0.2082049 0,0.2363279 0.6694158,0.28428 1.3460446,0.536831 1.921875,0.779297 0.6307204,0.265593 1.170258,0.527889 1.5312501,0.958985 0.05323,0.05754 0.08946,0.131864 0.103516,0.208984 0.02673,0.206425 0.04666,0.575763 0.06836,0.912109 0.156392,0.0035 0.300305,0.03577 0.457031,0.03516 1.797647,-0.0059 3.58626,-0.277687 4.722657,-0.882813 0.09139,-0.05724 0.111084,-0.08457 0.103515,-0.181641 -0.03404,-0.536496 -0.06327,-1.063807 -0.103515,-1.375 -0.01404,-0.07707 -0.05033,-0.149488 -0.103516,-0.207031 C 15.167856,9.8208616 14.628323,9.5566066 13.9976,9.2910156 13.421772,9.0485485 12.747086,8.7959988 12.077678,8.5117188 c -0.03757,-0.08347 -0.07471,-0.3248296 0,-0.6992188 0.02009,-0.1005267 0.05177,-0.209278 0.07813,-0.3125 0.06282,-0.070469 0.11192,-0.1274692 0.181641,-0.2070312 0.148676,-0.1696965 0.308666,-0.3482076 0.441406,-0.5195313 0.132732,-0.171324 0.240466,-0.318785 0.310547,-0.5195313 l 0.02539,-0.025391 c 0.271255,-1.0948271 0.273041,-1.5505002 0.28711,-1.9453125 v -0.027344 c 0,-1.2721034 -1.144319,-2.2578125 -2.492188,-2.2578118 z"
     id="path4530"
     inkscape:connector-curvature="0" />
  <rect
     style="color:#000000"
     fill-opacity="0"
     height="97.986"
     width="163.31"
     y="-32.993"
     x="-62.897"
     id="rect2" />
  <path
     inkscape:connector-curvature="0"
     id="path4558"
     d="m 5.2730668,3.7052862 c -1.3478628,0 -2.4912731,0.9857458 -2.4912731,2.2578497 0.00955,0.4020757 0.045515,0.8978458 0.2854556,1.9464215 v 0.025952 l 0.02595,0.025952 c 0.077015,0.2206302 0.1891073,0.3468439 0.3373549,0.5190402 0.1482485,0.1721965 0.324992,0.3748733 0.4930536,0.5449902 0.019781,0.020008 0.032438,0.032421 0.0519,0.051919 0.033324,0.145057 0.073716,0.3011565 0.1037987,0.4411842 0.080065,0.3725505 0.071867,0.636374 0.051912,0.726648 -0.5791711,0.203375 -1.2997478,0.44557 -1.9462729,0.72666 -0.3629856,0.157812 -0.6914494,0.298729 -0.9601343,0.467123 -0.26870844,0.168404 -0.53594564,0.295636 -0.62281094,0.674767 -0.1246017,0.492776 -0.1546714,0.586962 -0.311404,1.193782 -0.021196,0.162827 0.064629,0.334469 0.2076047,0.41522 1.17393054,0.634148 2.97725704,0.889366 4.77490104,0.882351 1.7976432,-0.0059 3.5865662,-0.277226 4.7229658,-0.882351 0.0914,-0.05723 0.1113641,-0.08456 0.1038011,-0.181625 -0.03401,-0.5365 -0.06351,-1.064246 -0.1038071,-1.375439 -0.01406,-0.07712 -0.05057,-0.150063 -0.103801,-0.207604 C 9.5312691,11.527032 8.9919219,11.263502 8.3612015,10.997909 7.7853711,10.755443 7.1102716,10.503635 6.4408558,10.219355 c -0.037459,-0.08344 -0.074691,-0.3263141 0,-0.700709 0.020055,-0.1005252 0.051462,-0.2082058 0.077852,-0.3114278 0.062909,-0.070467 0.1119429,-0.12805 0.1816563,-0.2076126 C 6.8490395,8.8299099 7.0087868,8.6518899 7.1415178,8.4805655 7.2742486,8.3092411 7.3828438,8.1622711 7.4529229,7.9615252 l 0.025952,-0.025952 C 7.7501198,6.8407518 7.7502599,6.3839655 7.7643284,5.989153 V 5.963201 c 0,-1.2721037 -1.1434098,-2.2578496 -2.4912724,-2.2578496 z"
     style="color:#000000;text-indent:0;text-transform:none;fill:#ffffff;stroke-width:0.77856976" />
</svg>
